# xmcd
#
# Track frame offsets:
#	182
#	14042
#	26935
#	49255
#	62682
#	75205
#	94822
#	107190
#	120457
#	134765
#	147952
#	158912
#	170612
#	183262
#	201140
#	214125
#	224002
#	230072
#	244780
#	257022
#	274625
#	287400
#	298942
#	311600
#	323712
#
# Disc length: 4471 seconds
#
# Revision: 2
# Processed by: cddbd v1.4PL0 Copyright (c) Steve Scherf et al.
# Submitted via: audiograbber 1.81.03
#
DISCID=84117519
DTITLE=Various Artist - 25 Blues Evergreens [CD 1]
DYEAR=1991
DGENRE=Blues
TTITLE0=Eric Clapton - Draggin' My Tail
TTITLE1=Muddy Waters - Hoochie Coochie Man
TTITLE2=Howlin' Wolf - Wangdang Doodle
TTITLE3=Lightning Hopkins - Mojo Hand
TTITLE4=Elmore James - Standing At The Crossroads
TTITLE5=John Mayall - Reaching For A Mountain
TTITLE6=Little Walter - Juke
TTITLE7=BB King - When My Heart Beats Like A Hammer
TTITLE8=Howlin' Wolf - I Walked From Dallas
TTITLE9=Muddy Waters - She Moves Me
TTITLE10=Sonny Boy Williamson - Got To Move
TTITLE11=John Lee Hooker - My First Wife Left Me
TTITLE12=BB King - Ten Long Years
TTITLE13=John Mayall - Mama Talk To Your Daughter
TTITLE14=Little Walter - Everybody Needs Somebody
TTITLE15=Howlin' Wolf - Shake For Me
TTITLE16=Eric Clapton - Choker
TTITLE17=Muddy Waters - Baby Please Don't Go
TTITLE18=Elmore James - The Sky Is Crying
TTITLE19=John Lee Hooker - You're Leavin' Me Baby
TTITLE20=Little Walter - Everything's Gonna Be Alright
TTITLE21=Sonny Boy Williamson - The Key (To Your Door)
TTITLE22=Howlin' Wolf - Killing Floor
TTITLE23=Elmore James - Mean Mistreatin' Mama
TTITLE24=Jeff Beck - I'm A Man
EXTD=YEAR: 1991 ID3G: 0\nrevised by THE COUNT The Netherlands
EXTT0=
EXTT1=
EXTT2=
EXTT3=
EXTT4=
EXTT5=
EXTT6=
EXTT7=
EXTT8=
EXTT9=
EXTT10=
EXTT11=
EXTT12=
EXTT13=
EXTT14=
EXTT15=
EXTT16=
EXTT17=
EXTT18=
EXTT19=
EXTT20=
EXTT21=
EXTT22=
EXTT23=
EXTT24=
PLAYORDER=
